<?xml version="1.0" encoding="utf-8"?>
<!-- Generator: Adobe Illustrator 18.0.0, SVG Export Plug-In . SVG Version: 6.00 Build 0)  -->
<!DOCTYPE svg PUBLIC "-//W3C//DTD SVG 1.1//EN" "http://www.w3.org/Graphics/SVG/1.1/DTD/svg11.dtd">
<svg version="1.1" id="Layer_1" xmlns="http://www.w3.org/2000/svg" xmlns:xlink="http://www.w3.org/1999/xlink" x="0px" y="0px"
	 viewBox="0 0 49.5 743.9" enable-background="new 0 0 49.5 743.9" xml:space="preserve">
<g>
	<defs>
		<rect id="SVGID_1_" x="0" y="0" width="49.5" height="743.9"/>
	</defs>
	<clipPath id="SVGID_2_">
		<use xlink:href="#SVGID_1_"  overflow="visible"/>
	</clipPath>
	<path clip-path="url(#SVGID_2_)" fill="#FFFFFF" d="M34.7,1.6L0,0.7v7.9l34.7-0.9V1.6z M41.4,1.3c-0.9,0.9-1.3,1.9-1.3,3.2
		c0,1.3,0.4,2.3,1.3,3.2C42.3,8.6,43.4,9,44.6,9c1.2,0,2.3-0.4,3.2-1.3c0.9-0.9,1.3-1.9,1.3-3.2s-0.4-2.3-1.3-3.2
		C46.9,0.4,45.9,0,44.6,0C43.4,0,42.3,0.4,41.4,1.3 M9.4,49.1h39.7v-7.5H9.4V29.5H3.5v31.8h5.8V49.1z M3.5,101.5h45.6V76.3h-5.8V94
		H28.9V78.3h-5.8V94H9.3V76.3H3.5V101.5z M28.7,143.7l20.4-17.6v-9.8l-22.7,20.6L3.5,116.2v9.8l20.8,17.7H3.5v7.5h45.6v-7.5H28.7z
		 M49.5,189.2c0-4.9-1.2-9.2-3.5-12.9c-2.4-3.8-5.7-6.5-10.1-8.2v9c4.6,2.4,6.9,6.5,6.9,12.2c0,4.6-1.5,8.3-4.5,11.2
		c-3,2.9-7,4.4-12,4.4s-9-1.4-12-4.4s-4.5-6.7-4.5-11.2c0-5.7,2.3-9.7,6.9-12.2v-9c-4.4,1.7-7.7,4.5-10.1,8.2
		c-2.4,3.8-3.6,8.1-3.6,12.9c0,6.5,2.2,12,6.6,16.5c4.4,4.5,10,6.8,16.7,6.8s12.3-2.2,16.7-6.8C47.3,201.3,49.5,195.8,49.5,189.2
		 M49.1,228H3.5v7.5h45.6V228z M9.4,270.9h39.7v-7.5H9.4v-12.1H3.5V283h5.8V270.9z M3.5,351.1h45.6v-25.2h-5.8v17.7H28.9v-15.7h-5.8
		v15.7H9.3v-17.7H3.5V351.1z M3.5,393.6h45.6v-25.2h-5.8v17.7H28.9v-15.7h-5.8v15.7H9.3v-17.7H3.5V393.6z M9.4,427.5
		c0-2.8,0.7-5,2-6.4c1.4-1.4,3.2-2.1,5.7-2.1s4.3,0.7,5.7,2.1c1.4,1.4,2,3.5,2,6.4v8.3H9.4V427.5z M30.6,431.2l18.5-11.4v-9.1
		l-18.9,12.1c-0.7-3.8-2.3-6.7-4.8-8.6c-2.4-1.9-5.2-2.8-8.3-2.8c-3.9,0-7.2,1.4-9.7,4.2c-2.6,2.8-3.8,6.8-3.8,11.9v15.7h45.6v-7.5
		H30.6V431.2z M49.1,477.7H29v-15.1h-5.8v15.1H9.4v-19.3H3.5v26.8h45.6V477.7z M12.5,549l21.4-7.5v15L12.5,549z M49.1,528.3
		L3.5,544.7v8.7l45.6,16.3v-7.8l-9.3-3.3v-19.1l9.3-3.3V528.3z M9.4,630.1h39.7v-7.5H9.4v-12.1H3.5v31.8h5.8V630.1z M3.5,682.5h45.6
		v-25.2h-5.8V675H28.9v-15.7h-5.8V675H9.3v-17.7H3.5V682.5z M43.8,705.4c-3.8-4.2-8.4-6.6-13.9-7.3h-5.8v25.1H30v-17.1
		c3.9,0.5,7,2.1,9.3,4.6s3.4,6,3.4,10.3c0,4.3-1.5,7.9-4.5,10.8c-3,2.9-7,4.4-12,4.4s-9-1.5-12-4.4c-3-2.9-4.5-6.7-4.5-11.2
		c0-5.7,2.3-9.7,6.9-12.2v-9c-4.4,1.7-7.7,4.4-10.1,8.2c-2.4,3.8-3.6,8.1-3.6,12.9c0,6.5,2.2,12,6.6,16.5s10,6.8,16.7,6.8
		s12.3-2.3,16.7-6.8c4.4-4.5,6.5-9.9,6.5-16.1C49.5,714.8,47.6,709.6,43.8,705.4"/>
</g>
</svg>
