<?xml version="1.0" encoding="utf-8"?>
<!-- Generator: Adobe Illustrator 18.0.0, SVG Export Plug-In . SVG Version: 6.00 Build 0)  -->
<!DOCTYPE svg PUBLIC "-//W3C//DTD SVG 1.1//EN" "http://www.w3.org/Graphics/SVG/1.1/DTD/svg11.dtd">
<svg version="1.1" id="Layer_1" xmlns="http://www.w3.org/2000/svg" xmlns:xlink="http://www.w3.org/1999/xlink" x="0px" y="0px"
	 viewBox="2529.8 0 132.9 2479.9" enable-background="new 2529.8 0 132.9 2479.9" xml:space="preserve">
<g>
	<defs>
		<rect id="SVGID_1_" x="2529.8" y="0" width="132.9" height="2479.9"/>
	</defs>
	<clipPath id="SVGID_2_">
		<use xlink:href="#SVGID_1_"  overflow="visible"/>
	</clipPath>
	<path clip-path="url(#SVGID_2_)" fill="#FFFFFF" d="M2614.3,43l-82.8-43v23.9l63.4,29.9l-63.4,29.9v23.7l82.8-43.2h47.1V43H2614.3z
		 M2548.2,197h113.2v-21.3h-113.2v-34.6h-16.6v90.6h16.6V197z M2661.4,276.4h-129.9v21.3h129.9V276.4z M2628.1,370.4l-96.8,64.1
		v21.3h130.1v-21.3h-97l97-64.1v-21.3h-130.1v21.3H2628.1z M2650.2,594c8.4-9.5,12.5-21.6,12.5-36.1c0-14.5-4.2-26.7-12.6-36.4
		c-8.4-9.8-20.5-14.7-36.2-14.7h-82.4v21.3h82.4c9.9,0,17.3,2.6,22.3,7.8c5,5.2,7.5,12.4,7.5,21.7c0,9.3-2.5,16.5-7.5,21.7
		c-5,5.2-12.4,7.7-22.3,7.7h-82.4v21.3h82.4C2629.8,608.3,2641.8,603.5,2650.2,594 M2531.5,682.3l101.9,45.4l-101.9,45.6v23h129.9
		V775h-89l89-39.8v-14.8l-89-39.6h89v-21.3h-129.9V682.3z M2531.5,870.5l101.9,45.4l-101.9,45.6v23h129.9v-21.3h-89l89-39.8v-14.8
		l-89-39.6h89v-21.3h-129.9V870.5z M2643.9,1047.9c-12.5-12.8-28.4-19.1-47.7-19.1c-19.2,0-35.1,6.4-47.7,19.1
		c-12.5,12.8-18.8,28.5-18.8,47.1c0,18.6,6.3,34.4,18.8,47.2c12.5,12.8,28.4,19.2,47.7,19.2c19.2,0,35.1-6.4,47.7-19.2
		c12.5-12.8,18.8-28.6,18.8-47.2C2662.7,1076.4,2656.4,1060.7,2643.9,1047.9 M2630.5,1127.1c-8.7,8.3-20.1,12.4-34.2,12.4
		s-25.5-4.1-34.1-12.4c-8.6-8.3-12.9-19-12.9-32s4.3-23.8,12.9-32.1c8.6-8.3,20-12.4,34.1-12.4s25.5,4.1,34.2,12.4
		c8.7,8.3,13,19,13,32.1S2639.1,1118.9,2630.5,1127.1 M2662.5,1262.9c0-13.8-3.4-26.1-10.1-36.9c-6.7-10.8-16.3-18.6-28.8-23.4v25.6
		c13.1,7,19.6,18.6,19.6,34.8c0,13.1-4.3,23.8-12.9,32c-8.6,8.3-20,12.4-34.1,12.4s-25.5-4.1-34.1-12.4c-8.6-8.3-12.9-19-12.9-32
		c0-16.2,6.6-27.8,19.6-34.8v-25.6c-12.5,4.9-22.1,12.7-28.9,23.4c-6.8,10.8-10.2,23.1-10.2,36.9c0,18.6,6.3,34.3,18.8,47.1
		c12.5,12.8,28.4,19.2,47.7,19.2c19.2,0,35.1-6.4,47.6-19.2C2656.3,1297.2,2662.5,1281.5,2662.5,1262.9 M2548.2,1498.2
		c0-8.1,1.9-14.2,5.8-18.1c3.9-4,9.2-6,16.2-6s12.3,2,16.2,6c3.9,4,5.8,10,5.8,18.1v23.5h-43.9V1498.2z M2608.7,1508.7l52.7-32.5
		v-26l-54,34.4c-2.1-11-6.7-19.1-13.6-24.4c-7-5.3-14.8-7.9-23.5-7.9c-11.2,0-20.5,4-27.8,12c-7.3,8-10.9,19.3-10.9,34v44.9h129.9
		v-21.3h-52.7V1508.7z M2650.2,1681.2c8.4-9.5,12.5-21.6,12.5-36.1c0-14.5-4.2-26.7-12.6-36.4s-20.5-14.7-36.2-14.7h-82.4v21.3h82.4
		c9.9,0,17.3,2.6,22.3,7.8c5,5.2,7.5,12.4,7.5,21.7c0,9.3-2.5,16.5-7.5,21.7c-5,5.2-12.4,7.7-22.3,7.7h-82.4v21.3h82.4
		C2629.8,1695.5,2641.8,1690.8,2650.2,1681.2 M2643.9,1758.8c-12.5-12.8-28.4-19.2-47.7-19.2c-19.2,0-35.1,6.4-47.7,19.2
		c-12.5,12.8-18.8,28.5-18.8,47.1s6.3,34.4,18.8,47.2c12.5,12.8,28.4,19.2,47.7,19.2c19.2,0,35.1-6.4,47.7-19.2
		c12.5-12.8,18.8-28.6,18.8-47.2S2656.4,1771.6,2643.9,1758.8 M2630.5,1838c-8.7,8.3-20.1,12.4-34.2,12.4s-25.5-4.1-34.1-12.4
		c-8.6-8.3-12.9-19-12.9-32.1c0-13.1,4.3-23.8,12.9-32c8.6-8.3,20-12.4,34.1-12.4s25.5,4.1,34.2,12.4c8.7,8.3,13,19,13,32
		C2643.5,1819.1,2639.1,1829.7,2630.5,1838 M2628.1,2017.3l-96.8,64.1v21.3h130.1v-21.3h-97l97-64.1V1996h-130.1v21.3H2628.1z
		 M2661.4,2154.1h-129.9v21.3h129.9V2154.1z M2643.9,2238.9c-12.5-12.8-28.4-19.2-47.7-19.2c-19.2,0-35.1,6.4-47.7,19.2
		c-12.5,12.8-18.8,28.5-18.8,47.1c0,18.6,6.3,34.4,18.8,47.2c12.5,12.8,28.4,19.2,47.7,19.2c19.2,0,35.1-6.4,47.7-19.2
		c12.5-12.8,18.8-28.6,18.8-47.2C2662.7,2267.4,2656.4,2251.7,2643.9,2238.9 M2630.5,2318.1c-8.7,8.3-20.1,12.4-34.2,12.4
		s-25.5-4.1-34.1-12.4c-8.6-8.3-12.9-19-12.9-32.1c0-13.1,4.3-23.8,12.9-32c8.6-8.3,20-12.4,34.1-12.4s25.5,4.1,34.2,12.4
		c8.7,8.3,13,19,13,32C2643.5,2299.2,2639.1,2309.8,2630.5,2318.1 M2638.7,2429c3.4,2.9,5.1,7,5.1,12.5s-1.7,9.6-5,12.4
		c-3.4,2.8-7.9,4.3-13.7,4.4v21.5c11.6,0,20.8-3.5,27.5-10.6c6.7-7,10.1-16.3,10.1-27.7c0-11.5-3.4-20.7-10.1-27.7
		c-6.7-7.1-15.9-10.6-27.5-10.6h-93.6v21.5h93.6C2630.8,2424.7,2635.3,2426.2,2638.7,2429"/>
</g>
</svg>
