<?xml version="1.0" encoding="utf-8"?>
<!-- Generator: Adobe Illustrator 18.0.0, SVG Export Plug-In . SVG Version: 6.00 Build 0)  -->
<!DOCTYPE svg PUBLIC "-//W3C//DTD SVG 1.1//EN" "http://www.w3.org/Graphics/SVG/1.1/DTD/svg11.dtd">
<svg version="1.1" id="Layer_1" xmlns="http://www.w3.org/2000/svg" xmlns:xlink="http://www.w3.org/1999/xlink" x="0px" y="0px"
	 viewBox="0 0 18.2 225.4" enable-background="new 0 0 18.2 225.4" xml:space="preserve">
<g>
	<defs>
		<rect id="SVGID_1_" x="1" y="0" width="16.3" height="225.4"/>
	</defs>
	<clipPath id="SVGID_2_">
		<use xlink:href="#SVGID_1_"  overflow="visible"/>
	</clipPath>
	<path clip-path="url(#SVGID_2_)" fill="#122F41" d="M17.2,8V0h-2v5.4h-14V8H17.2z M4.4,20.6l7.5-2.6v5.3L4.4,20.6z M17.2,13.4
		l-16,5.7v3l16,5.7v-2.7l-3.3-1.1v-6.7l3.3-1.1V13.4z M17.2,33.2h-16v2.6h16V33.2z M17.3,49.1c0-1.7-0.4-3.2-1.2-4.5
		c-0.8-1.3-2-2.3-3.5-2.9v3.1c1.6,0.9,2.4,2.3,2.4,4.3c0,1.6-0.5,2.9-1.6,3.9c-1.1,1-2.5,1.5-4.2,1.5c-1.7,0-3.1-0.5-4.2-1.5
		c-1.1-1-1.6-2.3-1.6-3.9c0-2,0.8-3.4,2.4-4.3v-3.1c-1.5,0.6-2.7,1.6-3.5,2.9C1.4,45.9,1,47.4,1,49.1c0,2.3,0.8,4.2,2.3,5.8
		c1.5,1.6,3.5,2.4,5.9,2.4c2.4,0,4.3-0.8,5.8-2.4C16.5,53.4,17.3,51.4,17.3,49.1 M15,64.2c-1.5-1.6-3.5-2.4-5.9-2.4
		c-2.4,0-4.3,0.8-5.9,2.4C1.8,65.8,1,67.7,1,70c0,2.3,0.8,4.2,2.3,5.8c1.5,1.6,3.5,2.4,5.9,2.4c2.4,0,4.3-0.8,5.9-2.4
		c1.5-1.6,2.3-3.5,2.3-5.8C17.3,67.7,16.6,65.8,15,64.2 M13.4,73.9c-1.1,1-2.5,1.5-4.2,1.5C7.4,75.5,6,75,5,73.9
		c-1.1-1-1.6-2.3-1.6-3.9c0-1.6,0.5-2.9,1.6-3.9c1.1-1,2.5-1.5,4.2-1.5c1.7,0,3.1,0.5,4.2,1.5c1.1,1,1.6,2.3,1.6,3.9
		C15,71.6,14.4,72.9,13.4,73.9 M3.8,87.2c0.4-0.5,0.9-0.7,1.5-0.8v-2.9c-1.4,0.1-2.5,0.6-3.2,1.6C1.4,86.1,1,87.4,1,89
		c0,1.6,0.4,2.9,1.3,3.9c0.8,1,2,1.5,3.4,1.5c0.8,0,1.5-0.2,2.1-0.5c0.6-0.3,1-0.7,1.3-1.2c0.3-0.5,0.5-1,0.7-1.7
		c0.2-0.6,0.3-1.2,0.5-1.8c0.1-0.6,0.3-1.1,0.5-1.6c0.2-0.5,0.4-0.9,0.8-1.2c0.4-0.3,0.8-0.5,1.5-0.5c0.6,0,1.2,0.3,1.6,0.8
		c0.5,0.5,0.7,1.2,0.7,2.1c0,0.9-0.2,1.6-0.6,2c-0.4,0.5-1,0.7-1.7,0.8v2.8c1.4,0,2.5-0.5,3.2-1.6c0.8-1,1.2-2.4,1.2-4.1
		c0-1.7-0.5-3-1.4-4c-0.9-1-2-1.5-3.2-1.5s-2.1,0.3-2.7,0.9c-0.6,0.6-1.1,1.3-1.3,2.1c-0.2,0.8-0.4,1.7-0.6,2.5
		c-0.2,0.8-0.5,1.5-0.9,2.1c-0.4,0.6-1,0.9-1.7,0.9c-0.8,0-1.3-0.2-1.7-0.7c-0.4-0.5-0.6-1.1-0.6-1.9C3.1,88.3,3.3,87.7,3.8,87.2
		 M3.2,116.1h13.9v-2.6H3.2v-4.2h-2v11.1h2V116.1z M1.2,134.5h16v-8.8h-2v6.2h-5v-5.5h-2v5.5H3.2v-6.2h-2V134.5z M15.3,142.5
		c-1.3-1.5-2.9-2.3-4.9-2.6h-2v8.8h2v-6c1.4,0.2,2.5,0.7,3.3,1.6c0.8,0.9,1.2,2.1,1.2,3.6c0,1.5-0.5,2.8-1.6,3.8
		c-1.1,1-2.5,1.5-4.2,1.5c-1.7,0-3.1-0.5-4.2-1.5c-1.1-1-1.6-2.3-1.6-3.9c0-2,0.8-3.4,2.4-4.3v-3.1c-1.5,0.6-2.7,1.6-3.5,2.9
		c-0.8,1.3-1.2,2.8-1.2,4.5c0,2.3,0.8,4.2,2.3,5.8c1.5,1.6,3.5,2.4,5.9,2.4c2.4,0,4.3-0.8,5.8-2.4c1.5-1.6,2.3-3.5,2.3-5.6
		C17.3,145.8,16.6,144,15.3,142.5 M3.8,174.8c0.4-0.5,0.9-0.7,1.5-0.8v-2.9c-1.4,0.1-2.5,0.6-3.2,1.6c-0.7,1-1.1,2.2-1.1,3.8
		s0.4,2.9,1.3,3.9c0.8,1,2,1.5,3.4,1.5c0.8,0,1.5-0.2,2.1-0.5c0.6-0.3,1-0.7,1.3-1.2c0.3-0.5,0.5-1,0.7-1.7s0.3-1.2,0.5-1.8
		c0.1-0.6,0.3-1.1,0.5-1.6c0.2-0.5,0.4-0.9,0.8-1.2c0.4-0.3,0.8-0.5,1.5-0.5c0.6,0,1.2,0.3,1.6,0.8c0.5,0.5,0.7,1.2,0.7,2.1
		c0,0.9-0.2,1.6-0.6,2c-0.4,0.5-1,0.7-1.7,0.8v2.8c1.4,0,2.5-0.5,3.2-1.6c0.8-1,1.2-2.4,1.2-4.1c0-1.7-0.5-3-1.4-4
		c-0.9-1-2-1.5-3.2-1.5s-2.1,0.3-2.7,0.9c-0.6,0.6-1.1,1.3-1.3,2.1c-0.2,0.8-0.4,1.7-0.6,2.5c-0.2,0.8-0.5,1.5-0.9,2.1
		c-0.4,0.6-1,0.9-1.7,0.9c-0.8,0-1.3-0.2-1.7-0.7c-0.4-0.5-0.6-1.1-0.6-1.9S3.3,175.2,3.8,174.8 M3.2,194h13.9v-2.6H3.2v-4.2h-2
		v11.1h2V194z M1.2,212.3h16v-8.8h-2v6.2h-5v-5.5h-2v5.5H3.2v-6.2h-2V212.3z M17.2,225.4v-8h-2v5.4h-14v2.6H17.2z"/>
</g>
</svg>
